<svg width="27" height="30" viewBox="0 0 27 30" fill="none" xmlns="http://www.w3.org/2000/svg">
<path d="M26.1772 19.0298L18.0769 14.5817L26.1772 10.1335C26.849 9.76459 27.0863 8.91549 26.703 8.25174L25.5934 6.32987C25.2102 5.66612 24.3563 5.44705 23.7008 5.8444L15.7985 10.6354L15.9965 1.39631C16.0129 0.630031 15.3962 0 14.6297 0H12.4106C11.6441 0 11.0274 0.630031 11.0439 1.39631L11.2418 10.6354L3.33948 5.84446C2.6841 5.44711 1.83011 5.66617 1.44688 6.32992L0.337311 8.2518C-0.0459139 8.91555 0.19138 9.76465 0.863219 10.1336L8.96339 14.5817L0.863162 19.0298C0.191323 19.3987 -0.0459709 20.2478 0.337311 20.9116L1.44688 22.8335C1.83011 23.4972 2.6841 23.7163 3.33948 23.3189L11.2418 18.5279L11.0438 27.767C11.0274 28.5333 11.6441 29.1633 12.4106 29.1633H14.6298C15.3962 29.1633 16.0129 28.5333 15.9965 27.767L15.7985 18.5279L23.7008 23.3189C24.3562 23.7162 25.2102 23.4972 25.5934 22.8334L26.703 20.9115C27.0862 20.2478 26.849 19.3987 26.1772 19.0298Z" fill="#FC5013"/>
</svg>
