<svg width="17" height="15" viewBox="0 0 17 15" fill="none" xmlns="http://www.w3.org/2000/svg">
<path d="M8.5 0.105713C3.80508 0.105713 0 3.19692 0 7.01196C0 8.65884 0.710547 10.1663 1.89258 11.3516C1.47754 13.025 0.0896484 14.5159 0.0730469 14.5325C0 14.6088 -0.0199219 14.7217 0.0232422 14.8213C0.0664062 14.9209 0.159375 14.9807 0.265625 14.9807C2.46699 14.9807 4.11719 13.9249 4.93398 13.2741C6.01973 13.6825 7.225 13.9182 8.5 13.9182C13.1949 13.9182 17 10.827 17 7.01196C17 3.19692 13.1949 0.105713 8.5 0.105713ZM4.25 8.07446C3.6623 8.07446 3.1875 7.59966 3.1875 7.01196C3.1875 6.42427 3.6623 5.94946 4.25 5.94946C4.8377 5.94946 5.3125 6.42427 5.3125 7.01196C5.3125 7.59966 4.8377 8.07446 4.25 8.07446ZM8.5 8.07446C7.9123 8.07446 7.4375 7.59966 7.4375 7.01196C7.4375 6.42427 7.9123 5.94946 8.5 5.94946C9.0877 5.94946 9.5625 6.42427 9.5625 7.01196C9.5625 7.59966 9.0877 8.07446 8.5 8.07446ZM12.75 8.07446C12.1623 8.07446 11.6875 7.59966 11.6875 7.01196C11.6875 6.42427 12.1623 5.94946 12.75 5.94946C13.3377 5.94946 13.8125 6.42427 13.8125 7.01196C13.8125 7.59966 13.3377 8.07446 12.75 8.07446Z" fill="black"/>
</svg>
