<?xml version="1.0" standalone="no"?>
<!DOCTYPE svg PUBLIC "-//W3C//DTD SVG 20010904//EN"
 "http://www.w3.org/TR/2001/REC-SVG-20010904/DTD/svg10.dtd">
<svg version="1.0" xmlns="http://www.w3.org/2000/svg"
 width="25.000000pt" height="25.000000pt" viewBox="0 0 50.000000 50.000000"
 preserveAspectRatio="xMidYMid meet">

<g transform="translate(0.000000,50.000000) scale(0.100000,-0.100000)"
fill="#000000" stroke="none">
<path d="M17 482 c-15 -16 -17 -48 -17 -234 0 -195 2 -216 18 -231 16 -15 48
-17 234 -17 195 0 216 2 231 18 15 16 17 48 17 234 0 195 -2 216 -18 231 -16
15 -48 17 -234 17 -195 0 -216 -2 -231 -18z m285 -52 c144 -40 185 -244 67
-332 -57 -42 -69 -43 -69 -4 0 19 -2 41 -5 48 -4 9 7 20 29 31 39 18 52 48 42
100 -3 17 -7 42 -10 55 -5 31 -11 35 -34 23 -27 -14 -118 -14 -144 0 -24 13
-41 -5 -32 -33 2 -9 0 -19 -6 -23 -13 -8 -13 -70 0 -94 5 -10 23 -24 40 -31
17 -7 29 -18 27 -24 -6 -20 -43 -18 -62 4 -28 31 -38 24 -13 -10 13 -18 31
-30 45 -30 18 0 23 -6 23 -25 0 -29 -16 -26 -69 13 -114 85 -82 278 56 327 47
17 67 18 115 5z"/>
</g>
</svg>
