<?xml version="1.0" standalone="no"?>
<!DOCTYPE svg PUBLIC "-//W3C//DTD SVG 20010904//EN"
 "http://www.w3.org/TR/2001/REC-SVG-20010904/DTD/svg10.dtd">
<svg version="1.0" xmlns="http://www.w3.org/2000/svg"
 width="25.000000pt" height="25.000000pt" viewBox="0 0 50.000000 50.000000"
 preserveAspectRatio="xMidYMid meet">

<g transform="translate(0.000000,50.000000) scale(0.100000,-0.100000)"
fill="#000000" stroke="none">
<path d="M135 490 l-120 -5 -3 -229 c-2 -160 1 -233 9 -242 9 -11 57 -14 229
-14 172 0 220 3 229 14 8 9 11 82 9 242 l-3 229 -115 5 c-63 3 -169 3 -235 0z
m55 -99 c15 -30 2 -53 -29 -49 -19 2 -27 10 -29 27 -6 39 39 56 58 22z m168
10 c8 -4 12 -19 10 -32 -4 -33 -53 -40 -63 -9 -11 36 22 61 53 41z m-198 -168
c0 -9 12 -30 27 -45 49 -52 132 -31 149 37 8 32 34 33 34 1 0 -33 -43 -82 -85
-96 -46 -15 -96 1 -130 41 -28 34 -34 79 -10 79 8 0 15 -8 15 -17z"/>
</g>
</svg>
