<?xml version="1.0" standalone="no"?>
<!DOCTYPE svg PUBLIC "-//W3C//DTD SVG 20010904//EN"
 "http://www.w3.org/TR/2001/REC-SVG-20010904/DTD/svg10.dtd">
<svg version="1.0" xmlns="http://www.w3.org/2000/svg"
 width="25.000000pt" height="25.000000pt" viewBox="0 0 50.000000 50.000000"
 preserveAspectRatio="xMidYMid meet">

<g transform="translate(0.000000,50.000000) scale(0.100000,-0.100000)"
fill="#000000" stroke="none">
<path d="M345 489 c-35 -20 -55 -53 -55 -92 0 -34 -4 -39 -45 -59 -37 -18 -49
-20 -63 -10 -39 28 -66 34 -105 22 -41 -12 -77 -58 -77 -98 0 -88 119 -144
175 -82 17 19 18 19 66 -6 45 -22 49 -27 49 -60 0 -92 108 -137 177 -72 45 42
39 129 -13 163 -33 21 -97 19 -125 -4 -23 -19 -24 -19 -71 5 -41 21 -48 29
-48 54 0 25 7 33 48 54 47 24 48 24 71 5 28 -23 92 -25 125 -4 52 35 58 121
12 164 -28 26 -92 37 -121 20z m97 -46 c42 -37 8 -123 -49 -123 -31 0 -73 42
-73 73 0 55 80 89 122 50z m-283 -149 c12 -15 21 -34 21 -44 0 -10 -9 -29 -21
-44 -41 -53 -119 -21 -119 48 0 64 79 90 119 40z m264 -125 c29 -16 37 -28 37
-63 0 -40 -26 -66 -66 -66 -66 0 -96 69 -49 115 27 28 45 31 78 14z"/>
</g>
</svg>
