<svg width="27" height="26" viewBox="0 0 27 26" fill="none" xmlns="http://www.w3.org/2000/svg">
<path d="M6.97124 6.70273C10.3758 3.29813 15.8768 3.28171 19.3033 6.64799L17.0482 8.89765C16.6705 9.27534 16.561 9.83912 16.7636 10.3317C16.9661 10.8244 17.4478 11.1418 17.9787 11.1418H24.5197H24.985C25.713 11.1418 26.2986 10.5562 26.2986 9.82817V2.82193C26.2986 2.29098 25.9812 1.8093 25.4885 1.60678C24.9959 1.40426 24.4321 1.51373 24.0544 1.89141L21.7774 4.16844C16.9825 -0.566251 9.25922 -0.54983 4.49169 4.22318C3.15612 5.55874 2.19277 7.12967 1.60161 8.81008C1.27867 9.72417 1.76035 10.7204 2.66897 11.0433C3.57759 11.3663 4.57927 10.8846 4.90221 9.97596C5.32368 8.78271 6.00789 7.66061 6.97124 6.70273ZM0.0252075 15.9586V16.3746V16.4129V22.9649C0.0252075 23.4958 0.342678 23.9775 0.835305 24.18C1.32793 24.3826 1.89172 24.2731 2.2694 23.8954L4.54643 21.6184C9.34133 26.3531 17.0646 26.3366 21.8322 21.5636C23.1677 20.2281 24.1365 18.6571 24.7277 16.9822C25.0506 16.0681 24.569 15.0719 23.6603 14.749C22.7517 14.426 21.75 14.9077 21.4271 15.8163C21.0056 17.0096 20.3214 18.1317 19.3581 19.0896C15.9535 22.4942 10.4525 22.5106 7.02598 19.1443L9.27564 16.8892C9.65332 16.5115 9.7628 15.9477 9.56027 15.4551C9.35775 14.9624 8.87607 14.645 8.34513 14.645H1.79866H1.76035H1.33888C0.610886 14.645 0.0252075 15.2306 0.0252075 15.9586Z" fill="black"/>
</svg>
